<?xml version="1.0" standalone="no"?>
<!DOCTYPE svg PUBLIC "-//W3C//DTD SVG 20010904//EN"
 "http://www.w3.org/TR/2001/REC-SVG-20010904/DTD/svg10.dtd">
<svg version="1.0" xmlns="http://www.w3.org/2000/svg"
 width="500.000000pt" height="500.000000pt" viewBox="0 0 500.000000 500.000000"
 preserveAspectRatio="xMidYMid meet">
<metadata>
Created by potrace 1.11, written by Peter Selinger 2001-2013
</metadata>
<g transform="translate(0.000000,500.000000) scale(0.100000,-0.100000)"
fill="#000000" stroke="none">
<path d="M2477 4984 c-1 -1 -53 -4 -116 -8 -62 -3 -141 -10 -175 -16 -33 -5
-77 -11 -96 -14 -55 -7 -129 -23 -210 -46 -41 -11 -87 -23 -102 -26 -16 -4
-28 -11 -28 -16 0 -5 -5 -6 -10 -3 -21 13 -414 -160 -462 -203 -10 -8 -18 -12
-18 -9 0 12 -207 -131 -306 -211 -154 -124 -315 -290 -422 -434 -65 -89 -142
-206 -142 -217 0 -6 -4 -11 -8 -11 -8 0 -110 -197 -151 -290 -50 -116 -101
-270 -126 -381 -2 -11 -6 -28 -9 -37 -3 -9 -8 -33 -11 -52 -3 -19 -8 -42 -10
-50 -2 -8 -7 -37 -11 -65 -3 -27 -8 -58 -10 -68 -24 -128 -24 -468 0 -637 2
-14 7 -47 11 -75 14 -111 86 -378 127 -475 11 -25 21 -52 23 -60 7 -33 117
-251 178 -351 63 -104 161 -244 198 -284 11 -11 38 -42 62 -70 55 -65 202
-210 247 -244 19 -14 40 -31 45 -37 32 -34 274 -204 291 -204 4 0 15 -6 23
-14 25 -22 225 -120 336 -164 413 -167 890 -215 1345 -137 28 5 39 8 130 28
274 63 565 188 795 342 205 137 426 337 568 514 50 62 127 171 127 180 0 5 4
11 8 13 13 5 99 150 148 248 44 88 122 273 128 300 2 8 6 24 10 35 23 59 27
72 30 90 2 11 13 56 24 100 11 44 23 98 26 119 4 21 8 48 11 60 34 149 41 606
12 741 -3 11 -8 43 -11 70 -4 28 -9 57 -11 65 -2 8 -6 26 -9 40 -19 96 -82
312 -106 365 -5 11 -23 54 -40 95 -44 104 -103 219 -169 325 -62 102 -138 208
-152 213 -5 2 -9 10 -9 17 0 7 -3 15 -7 17 -5 2 -33 32 -63 68 -84 100 -244
255 -330 320 -18 14 -38 30 -44 35 -23 22 -117 85 -125 85 -5 0 -11 4 -13 9
-1 5 -39 30 -83 56 -44 25 -87 50 -95 55 -22 13 -137 69 -200 98 -68 30 -237
92 -268 98 -13 3 -42 11 -65 18 -36 12 -65 19 -137 33 -133 25 -177 33 -213
37 -77 9 -325 24 -330 20z"/>
</g>
</svg>
